<svg width="24" height="25" viewBox="0 0 24 25" fill="none" xmlns="http://www.w3.org/2000/svg">
<path d="M17 21.8333C18.1046 21.8333 19 20.9165 19 19.7857C19 18.6548 18.1046 17.738 17 17.738C15.8954 17.738 15 18.6548 15 19.7857C15 20.9165 15.8954 21.8333 17 21.8333Z" stroke="#242424" stroke-width="2" stroke-linecap="round" stroke-linejoin="round"/>
<path d="M8 21.8333C9.10457 21.8333 10 20.9165 10 19.7857C10 18.6548 9.10457 17.738 8 17.738C6.89543 17.738 6 18.6548 6 19.7857C6 20.9165 6.89543 21.8333 8 21.8333Z" stroke="#242424" stroke-width="2" stroke-linecap="round" stroke-linejoin="round"/>
<path d="M3 3.40479H4.19158C4.66312 3.40479 5.07059 3.74203 5.16939 4.21408L7.83061 16.9288C7.92941 17.4009 8.33688 17.7381 8.80842 17.7381H17" stroke="#242424" stroke-width="2" stroke-linecap="round" stroke-linejoin="round"/>
<path d="M6 6.47607H19.6708C20.3362 6.47607 20.816 7.12905 20.6316 7.78364L18.9008 13.9265C18.7773 14.3648 18.3855 14.6665 17.94 14.6665H7.73077" stroke="#242424" stroke-width="2" stroke-linecap="round" stroke-linejoin="round"/>
</svg>
