<svg width="20" height="19" viewBox="0 0 20 19" fill="none" xmlns="http://www.w3.org/2000/svg">
<path d="M10 17.8094L9.62849 18.4609C9.85876 18.5922 10.1412 18.5922 10.3715 18.4609L10 17.8094ZM10 4.66596L9.3073 4.95349C9.42352 5.23347 9.69686 5.41596 10 5.41596C10.3031 5.41596 10.5765 5.23347 10.6927 4.95349L10 4.66596ZM0.25 6.51919C0.25 9.94039 2.72351 12.9558 4.99451 15.0277C6.1523 16.084 7.30675 16.9395 8.17022 17.5303C8.60267 17.8262 8.96393 18.057 9.2185 18.2146C9.34583 18.2934 9.44659 18.354 9.51637 18.3954C9.55126 18.4161 9.57842 18.432 9.59729 18.4429C9.60672 18.4484 9.61409 18.4527 9.61931 18.4557C9.62192 18.4572 9.624 18.4584 9.62553 18.4592C9.6263 18.4597 9.62693 18.4601 9.62742 18.4603C9.62767 18.4605 9.62794 18.4606 9.62806 18.4607C9.6283 18.4608 9.62849 18.4609 10 17.8094C10.3715 17.1579 10.3716 17.158 10.3717 17.158C10.3717 17.158 10.3718 17.1581 10.3718 17.158C10.3717 17.158 10.3715 17.1579 10.3712 17.1577C10.3705 17.1573 10.3694 17.1567 10.3676 17.1557C10.3642 17.1537 10.3587 17.1505 10.3511 17.1461C10.3359 17.1373 10.3125 17.1236 10.2815 17.1052C10.2194 17.0684 10.1268 17.0127 10.0081 16.9392C9.77045 16.7921 9.42858 16.5738 9.01728 16.2924C8.19325 15.7285 7.0977 14.9161 6.00549 13.9196C3.77649 11.886 1.75 9.25633 1.75 6.51919H0.25ZM10.6927 4.37844C9.56185 1.65407 6.98264 0.387976 4.64027 0.734415C3.46732 0.907896 2.3578 1.48678 1.54493 2.47859C0.730929 3.47178 0.25 4.83443 0.25 6.51919H1.75C1.75 5.12479 2.14407 4.11392 2.70507 3.42942C3.2672 2.74355 4.03268 2.3406 4.85973 2.21827C6.51736 1.97311 8.43815 2.85956 9.3073 4.95349L10.6927 4.37844ZM18.25 6.51919C18.25 9.25633 16.2235 11.886 13.9945 13.9196C12.9023 14.9161 11.8067 15.7285 10.9827 16.2924C10.5714 16.5738 10.2296 16.7921 9.99193 16.9392C9.87317 17.0127 9.78058 17.0684 9.71852 17.1052C9.68749 17.1236 9.66411 17.1373 9.64892 17.1461C9.64133 17.1505 9.63579 17.1537 9.63236 17.1557C9.63064 17.1567 9.62946 17.1573 9.62881 17.1577C9.62849 17.1579 9.6283 17.158 9.62825 17.158C9.62822 17.1581 9.62828 17.158 9.62827 17.158C9.62836 17.158 9.62849 17.1579 10 17.8094C10.3715 18.4609 10.3717 18.4608 10.3719 18.4607C10.3721 18.4606 10.3723 18.4605 10.3726 18.4603C10.3731 18.4601 10.3737 18.4597 10.3745 18.4592C10.376 18.4584 10.3781 18.4572 10.3807 18.4557C10.3859 18.4527 10.3933 18.4484 10.4027 18.4429C10.4216 18.432 10.4487 18.4161 10.4836 18.3954C10.5534 18.354 10.6542 18.2934 10.7815 18.2146C11.0361 18.057 11.3973 17.8262 11.8298 17.5303C12.6933 16.9395 13.8477 16.084 15.0055 15.0277C17.2765 12.9558 19.75 9.94039 19.75 6.51919H18.25ZM10.6927 4.95349C11.5619 2.85956 13.4826 1.97311 15.1403 2.21827C15.9673 2.3406 16.7328 2.74355 17.2949 3.42942C17.8559 4.11392 18.25 5.12479 18.25 6.51919H19.75C19.75 4.83443 19.2691 3.47178 18.4551 2.47859C17.6422 1.48678 16.5327 0.907896 15.3597 0.734415C13.0174 0.387976 10.4381 1.65407 9.3073 4.37844L10.6927 4.95349Z" fill="#242424"/>
</svg>
