<svg width="18" height="20" viewBox="0 0 18 20" fill="none" xmlns="http://www.w3.org/2000/svg">
<path d="M16.6585 8.26536L9.6585 1.99453C9.28148 1.65677 8.71852 1.65677 8.3415 1.99453L1.3415 8.26536C1.12448 8.45977 1 8.74063 1 9.03585V17.7856C1 18.351 1.44772 18.8094 2 18.8094H6C6.55228 18.8094 7 18.351 7 17.7856V13.6903C7 13.1249 7.44772 12.6665 8 12.6665H10C10.5523 12.6665 11 13.1249 11 13.6903V17.7856C11 18.351 11.4477 18.8094 12 18.8094H16C16.5523 18.8094 17 18.351 17 17.7856V9.03585C17 8.74063 16.8755 8.45977 16.6585 8.26536Z" stroke="#242424" stroke-width="2" stroke-linecap="round" stroke-linejoin="round"/>
</svg>
