<svg width="16" height="20" viewBox="0 0 16 20" fill="none" xmlns="http://www.w3.org/2000/svg">
<path fill-rule="evenodd" clip-rule="evenodd" d="M0.292512 15.6855C0.0825117 15.4755 -0.0224883 15.1835 0.00351172 14.8875L0.382512 10.7175C0.424512 10.2605 0.626512 9.82946 0.952512 9.50346L9.94851 0.507458C10.6505 -0.197542 11.9235 -0.162542 12.6645 0.576458L15.4025 3.31446L15.4035 3.31546C16.1685 4.08146 16.1995 5.29946 15.4715 6.02946L6.47451 15.0265C6.14951 15.3515 5.71851 15.5535 5.26051 15.5955L1.09051 15.9745C1.06051 15.9765 1.03051 15.9775 0.999512 15.9775C0.736512 15.9775 0.481512 15.8735 0.292512 15.6855ZM12.0185 6.65646L9.32351 3.96146L11.2715 2.01246L13.9655 4.70646L12.0185 6.65646ZM5.07951 13.6025L2.10251 13.8735L2.36651 10.9175L7.98351 5.30046L10.6795 7.99746L5.07951 13.6025ZM14.9995 19.9775C15.5495 19.9775 15.9995 19.5275 15.9995 18.9775C15.9995 18.4285 15.5495 17.9775 14.9995 17.9775H0.999512C0.450512 17.9775 -0.000488281 18.4285 -0.000488281 18.9775C-0.000488281 19.5275 0.450512 19.9775 0.999512 19.9775H14.9995Z" fill="#242424"/>
</svg>
