<svg width="58" height="58" viewBox="0 0 58 58" fill="none" xmlns="http://www.w3.org/2000/svg">
<path d="M16.5058 9.66667H48.3333C51.0158 9.66667 53.1666 11.8175 53.1666 14.5V43.5C53.1666 44.3217 52.9733 45.095 52.6108 45.7717L48.3333 41.4942V29H35.8391L26.1725 19.3333H48.3333V14.5H21.3391L16.5058 9.66667ZM49.5175 56.3325L41.4941 48.3333H9.66665C6.98415 48.3333 4.83331 46.1825 4.83331 43.5L4.85748 14.5C4.85748 13.6783 5.05081 12.905 5.41331 12.2525L1.66748 8.4825L5.07498 5.075L52.925 52.925L49.5175 56.3325ZM9.66665 16.5058V19.3333H12.4941L9.66665 16.5058ZM36.6608 43.5L22.1608 29H9.66665V43.5H36.6608Z" fill="#FF3B30"/>
</svg>
