<svg width="343" height="36" viewBox="0 0 343 36" fill="none" xmlns="http://www.w3.org/2000/svg">
<rect width="343" height="36" rx="10" fill="#E9E9E9"/>
<path d="M30.5894 20.7046C30.7305 22.8213 32.4902 24.1992 35.0303 24.1992C37.7861 24.1992 39.5127 22.8296 39.5127 20.6382C39.5127 18.9199 38.5083 17.9653 36.0264 17.3428L34.7729 17.0107C33.146 16.5874 32.4819 16.0479 32.4819 15.1431C32.4819 13.9727 33.561 13.1675 35.1133 13.1675C36.6738 13.1675 37.7114 13.9561 37.8442 15.2427H39.3384C39.272 13.2339 37.5454 11.8228 35.1631 11.8228C32.6729 11.8228 30.9297 13.2173 30.9297 15.2095C30.9297 16.8364 31.9092 17.8076 34.1172 18.3721L35.6528 18.7705C37.2632 19.1855 37.9688 19.8081 37.9688 20.8208C37.9688 21.9995 36.79 22.8545 35.1714 22.8545C33.4614 22.8545 32.2329 21.9995 32.0918 20.7046H30.5894ZM44.0852 16.4712C45.4465 16.4712 46.3513 17.5005 46.3845 18.9448H41.6945C41.7858 17.5088 42.7321 16.4712 44.0852 16.4712ZM46.3513 21.5264C46.1106 22.3398 45.3054 22.896 44.2097 22.896C42.6574 22.896 41.6862 21.8086 41.6862 20.1567V20.0737H47.8786V19.5259C47.8786 16.9111 46.4426 15.2178 44.1101 15.2178C41.7277 15.2178 40.2004 17.0356 40.2004 19.7168C40.2004 22.4312 41.7028 24.1494 44.1765 24.1494C46.0608 24.1494 47.5217 23.0371 47.7707 21.5264H46.3513ZM51.7787 22.9209C50.7411 22.9209 50.0522 22.3813 50.0522 21.5596C50.0522 20.7461 50.7162 20.2314 51.8783 20.1567L54.186 20.0156V20.7212C54.186 21.9663 53.1401 22.9209 51.7787 22.9209ZM51.455 24.1494C52.6171 24.1494 53.7128 23.502 54.2275 22.5142H54.2607V24H55.6303V18.0317C55.6303 16.3135 54.352 15.2178 52.3266 15.2178C50.2846 15.2178 49.0063 16.3633 48.9067 17.8574H50.3012C50.4838 17.0107 51.1811 16.4878 52.2934 16.4878C53.4887 16.4878 54.186 17.1187 54.186 18.1729V18.895L51.7123 19.0361C49.7201 19.1523 48.5829 20.082 48.5829 21.5596C48.5829 23.1118 49.7367 24.1494 51.455 24.1494ZM57.0568 24H58.5011V18.6211C58.5011 17.4009 59.2316 16.5957 60.3522 16.5957C60.7008 16.5957 61.0079 16.6372 61.1241 16.6787V15.2759C61.0079 15.2593 60.7921 15.2178 60.5431 15.2178C59.5304 15.2178 58.7335 15.8237 58.4513 16.7783H58.4181V15.3672H57.0568V24ZM68.6517 18.1978C68.4691 16.6455 67.1825 15.2178 65.0243 15.2178C62.6419 15.2178 61.0565 16.9609 61.0565 19.6836C61.0565 22.4644 62.6502 24.1494 65.0409 24.1494C66.9998 24.1494 68.4442 22.9375 68.6683 21.2192H67.2489C66.9998 22.2568 66.2279 22.8794 65.0492 22.8794C63.555 22.8794 62.5257 21.6924 62.5257 19.6836C62.5257 17.7246 63.5384 16.4878 65.0326 16.4878C66.3026 16.4878 67.033 17.2598 67.2406 18.1978H68.6517ZM69.6631 24H71.1075V18.9697C71.1075 17.4756 71.9956 16.4961 73.4317 16.4961C74.7847 16.4961 75.4737 17.3179 75.4737 18.6875V24H76.918V18.4219C76.918 16.4961 75.7725 15.2178 73.8799 15.2178C72.5684 15.2178 71.6221 15.7822 71.1407 16.7451H71.1075V12.022H69.6631V24Z" fill="#3C3C43" fill-opacity="0.6"/>
<path d="M324 18.0482C324 19.0526 324.205 19.9443 324.615 20.7233C325.03 21.5022 325.607 22.1274 326.345 22.5989C327.082 23.0652 327.941 23.3394 328.92 23.4214V25.2124H326.068C325.904 25.2124 325.765 25.2688 325.653 25.3815C325.54 25.4943 325.484 25.6327 325.484 25.7966C325.484 25.9555 325.54 26.0913 325.653 26.2041C325.765 26.3168 325.904 26.3732 326.068 26.3732H332.932C333.096 26.3732 333.235 26.3168 333.347 26.2041C333.46 26.0913 333.516 25.9555 333.516 25.7966C333.516 25.6327 333.46 25.4943 333.347 25.3815C333.235 25.2688 333.096 25.2124 332.932 25.2124H330.08V23.4214C331.059 23.3394 331.918 23.0652 332.655 22.5989C333.393 22.1274 333.967 21.5022 334.377 20.7233C334.792 19.9443 335 19.0526 335 18.0482V16.4878C335 16.3289 334.944 16.1931 334.831 16.0804C334.718 15.9676 334.582 15.9113 334.423 15.9113C334.259 15.9113 334.121 15.9676 334.008 16.0804C333.896 16.1931 333.839 16.3289 333.839 16.4878V18.0021C333.839 18.8733 333.66 19.6369 333.301 20.2928C332.942 20.9488 332.438 21.4587 331.787 21.8225C331.141 22.1812 330.38 22.3606 329.504 22.3606C328.628 22.3606 327.864 22.1812 327.213 21.8225C326.562 21.4587 326.058 20.9488 325.699 20.2928C325.34 19.6369 325.161 18.8733 325.161 18.0021V16.4878C325.161 16.3289 325.104 16.1931 324.992 16.0804C324.879 15.9676 324.741 15.9113 324.577 15.9113C324.418 15.9113 324.282 15.9676 324.169 16.0804C324.056 16.1931 324 16.3289 324 16.4878V18.0482ZM329.504 20.7079C330.011 20.7079 330.457 20.59 330.841 20.3543C331.231 20.1186 331.531 19.7932 331.741 19.3781C331.956 18.9578 332.064 18.4736 332.064 17.9252V12.7827C332.064 12.2343 331.956 11.7526 331.741 11.3375C331.531 10.9173 331.231 10.5893 330.841 10.3536C330.457 10.1179 330.011 10 329.504 10C328.991 10 328.543 10.1179 328.159 10.3536C327.774 10.5893 327.474 10.9173 327.259 11.3375C327.044 11.7526 326.936 12.2343 326.936 12.7827V17.9252C326.936 18.4736 327.044 18.9578 327.259 19.3781C327.474 19.7932 327.774 20.1186 328.159 20.3543C328.543 20.59 328.991 20.7079 329.504 20.7079Z" fill="#8E8E93"/>
<path d="M14.3833 22.7666C15.7612 22.7666 17.0479 22.3184 18.0938 21.5713L22.0283 25.5059C22.2109 25.6885 22.4517 25.7798 22.7007 25.7798C23.2402 25.7798 23.6304 25.3647 23.6304 24.8335C23.6304 24.5845 23.5474 24.3521 23.3647 24.1694L19.4551 20.2515C20.2769 19.1724 20.7666 17.8359 20.7666 16.3833C20.7666 12.8721 17.8945 10 14.3833 10C10.8638 10 8 12.8721 8 16.3833C8 19.8945 10.8638 22.7666 14.3833 22.7666ZM14.3833 21.3887C11.6357 21.3887 9.37793 19.1226 9.37793 16.3833C9.37793 13.644 11.6357 11.3779 14.3833 11.3779C17.1226 11.3779 19.3887 13.644 19.3887 16.3833C19.3887 19.1226 17.1226 21.3887 14.3833 21.3887Z" fill="#8E8E93"/>
</svg>
