<svg width="59" height="60" viewBox="0 0 59 60" fill="none" xmlns="http://www.w3.org/2000/svg">
<g clip-path="url(#clip0_149_13486)">
<path d="M36.0978 10.3377L9.83118 23.3957C8.00893 24.3016 7.29062 26.4808 8.19651 28.3031L17.9736 48.0112C18.8794 49.8334 21.0669 50.5682 22.8891 49.6623L29.4558 46.3978C30.3587 45.9489 30.7302 44.8429 30.2813 43.94C29.8324 43.0371 28.7264 42.6656 27.8235 43.1145L21.2569 46.379L16.3601 36.529L45.9101 21.8388L41.0134 11.9888C40.1156 10.183 37.9036 9.43999 36.0978 10.3377ZM39.3623 16.9044L13.0957 29.9623L11.4634 26.679L37.73 13.6211L39.3623 16.9044ZM40.1551 39.3795L34.9446 37.6293C33.9861 37.3074 32.9518 37.8215 32.6299 38.7801C32.3079 39.7386 32.8221 40.7729 33.7806 41.0948L40.7361 43.4311C41.6947 43.7531 42.7289 43.2389 43.0509 42.2804L47.7234 28.3693C48.0454 27.4108 47.5312 26.3765 46.5727 26.0546C45.6142 25.7326 44.5799 26.2468 44.258 27.2053L40.1551 39.3795Z" fill="#26A212"/>
</g>
<defs>
<clipPath id="clip0_149_13486">
<rect width="44" height="44" fill="white" transform="translate(0 20.0935) rotate(-26.4334)"/>
</clipPath>
</defs>
</svg>
