<svg width="21" height="21" viewBox="0 0 21 21" fill="none" xmlns="http://www.w3.org/2000/svg">
<path d="M12.7302 18.7675L11.8357 19.2148L12.7302 18.7675ZM14.5804 18.6144L13.6246 18.3203L14.5804 18.6144ZM8.93283 11.6201L8.48561 12.5145L8.93283 11.6201ZM9.38004 12.0673L10.2745 11.6201L9.38004 12.0673ZM2.38572 6.41978L2.67981 7.37556L2.38572 6.41978ZM2.2326 8.26998L1.78538 9.16441H1.78538L2.2326 8.26998ZM18.1948 1.55543L18.4889 2.51121L18.1948 1.55543ZM19.4447 2.8053L20.4005 3.09938L19.4447 2.8053ZM17.9008 0.599653L2.09164 5.464L2.67981 7.37556L18.4889 2.51121L17.9008 0.599653ZM1.78538 9.16441L8.48561 12.5145L9.38004 10.7257L2.67981 7.37555L1.78538 9.16441ZM8.48561 12.5145L11.8357 19.2148L13.6246 18.3203L10.2745 11.6201L8.48561 12.5145ZM15.5361 18.9085L20.4005 3.09938L18.4889 2.51121L13.6246 18.3203L15.5361 18.9085ZM11.8357 19.2148C12.6426 20.8286 15.0055 20.633 15.5361 18.9085L13.6246 18.3203L11.8357 19.2148ZM8.48561 12.5145V12.5145L10.2745 11.6201C10.0809 11.233 9.76709 10.9192 9.38004 10.7257L8.48561 12.5145ZM2.09164 5.464C0.367103 5.99462 0.171553 8.35749 1.78538 9.16441L2.67981 7.37555L2.67981 7.37556L2.09164 5.464ZM18.4889 2.51121L18.4889 2.51121L20.4005 3.09938C20.8727 1.56483 19.4353 0.127485 17.9008 0.599653L18.4889 2.51121Z" fill="#14181F"/>
</svg>
