<svg width="24" height="25" viewBox="0 0 24 25" fill="none" xmlns="http://www.w3.org/2000/svg">
<path d="M12 21.8334C16.9706 21.8334 21 17.708 21 12.6191C21 7.53016 16.9706 3.40479 12 3.40479C7.02944 3.40479 3 7.53016 3 12.6191C3 17.708 7.02944 21.8334 12 21.8334Z" stroke="#F55725" stroke-width="2" stroke-linecap="round" stroke-linejoin="round"/>
<path d="M17.2165 20.1258C15.9348 18.6603 14.0725 17.738 11.9998 17.738C9.92718 17.738 8.06492 18.6603 6.7832 20.1258" stroke="#F55725" stroke-width="2" stroke-linecap="round" stroke-linejoin="round"/>
<path d="M12 14.6665C13.6569 14.6665 15 13.2914 15 11.5951C15 9.89881 13.6569 8.52368 12 8.52368C10.3431 8.52368 9 9.89881 9 11.5951C9 13.2914 10.3431 14.6665 12 14.6665Z" stroke="#F55725" stroke-width="2" stroke-linecap="round" stroke-linejoin="round"/>
</svg>
