<svg width="67" height="67" viewBox="0 0 67 67" fill="none" xmlns="http://www.w3.org/2000/svg">
<circle cx="33.4676" cy="33.4676" r="24.5" transform="rotate(-30 33.4676 33.4676)" fill="#FF5732"/>
<path d="M20.0835 44.2464C21.0642 45.8904 22.9652 46.0795 25.1438 44.8217C27.346 43.5502 28.1236 41.6567 27.1427 39.9577C26.3634 38.6079 25.1647 38.2817 23.2895 38.9302L22.0628 39.3622C21.0629 39.6948 20.537 39.659 20.2704 39.1972C19.9696 38.6762 20.2746 38.0423 21.0324 37.6048C21.8138 37.1537 22.6034 37.1951 23.0037 37.7928L25.0047 36.6375C24.0548 35.0468 22.1957 34.7388 20.0585 35.9727C18.0812 37.1143 17.2756 39.0002 18.2326 40.6579C18.9812 41.9544 20.2844 42.3386 22.0335 41.7313L23.2788 41.3044C24.3659 40.9451 24.8604 40.9675 25.1338 41.4411C25.4312 41.9562 25.0993 42.6529 24.2528 43.1417C23.4476 43.6065 22.5649 43.5952 22.1496 43.0536L20.0835 44.2464ZM35.0278 38.9178L37.3366 37.5848L29.5332 30.6998L26.8751 32.2345L28.936 42.4349L31.1501 41.1566L30.6113 38.9654L33.4055 37.3522L35.0278 38.9178ZM29.182 33.318L29.2293 33.2907L32.0769 36.0354L30.1292 37.1599L29.182 33.318ZM42.8547 32.0624L39.3204 34.103L35.4 27.3126L33.2274 28.567L38.1595 37.1097L43.8665 33.8148L42.8547 32.0624ZM49.7043 28.1078L46.022 30.2338L45.0171 28.4933L48.4804 26.4938L47.5575 24.8954L44.0943 26.8949L43.1133 25.1958L46.7956 23.0698L45.7839 21.3175L39.9289 24.6979L44.861 33.2406L50.716 29.8602L49.7043 28.1078Z" fill="white"/>
</svg>
